<svg width="248" height="44" viewBox="0 0 248 44" fill="none" xmlns="http://www.w3.org/2000/svg">
<path d="M41.373 11H40.2246L38.208 4.30762C38.1123 4.01139 38.0052 3.6377 37.8867 3.18652C37.7682 2.73535 37.7067 2.46419 37.7021 2.37305C37.6019 2.97461 37.4424 3.63314 37.2236 4.34863L35.2686 11H34.1201L31.4609 1.00586H32.6914L34.2705 7.17871C34.4893 8.0446 34.6488 8.82845 34.749 9.53027C34.8721 8.69629 35.0544 7.88053 35.2959 7.08301L37.0869 1.00586H38.3174L40.1973 7.1377C40.416 7.84408 40.6006 8.6416 40.751 9.53027C40.8376 8.88314 41.0016 8.09473 41.2432 7.16504L42.8154 1.00586H44.0459L41.373 11Z" fill="#303343"/>
<path d="M51.8936 11L50.6494 7.82129H46.6436L45.4131 11H44.2373L48.1885 0.964844H49.166L53.0967 11H51.8936ZM50.2871 6.77539L49.125 3.67871C48.9746 3.28678 48.8197 2.80599 48.6602 2.23633C48.5599 2.67383 48.4163 3.15462 48.2295 3.67871L47.0537 6.77539H50.2871Z" fill="#303343"/>
<path d="M60.1787 1.00586H61.4297L57.8271 11H56.6787L53.0967 1.00586H54.3271L56.624 7.47266C56.8883 8.21549 57.098 8.93783 57.2529 9.63965C57.417 8.90137 57.6312 8.16536 57.8955 7.43164L60.1787 1.00586Z" fill="#303343"/>
<path d="M68.3818 11H62.8105V1.00586H68.3818V2.03809H63.9727V5.25781H68.1152V6.2832H63.9727V9.96094H68.3818V11Z" fill="#303343"/>
<path d="M78.9707 3.76074C78.401 3.76074 77.9613 3.95898 77.6514 4.35547C77.346 4.75195 77.1934 5.30111 77.1934 6.00293C77.1934 6.76855 77.3369 7.33594 77.624 7.70508C77.9157 8.07422 78.36 8.25879 78.957 8.25879C79.349 8.25879 79.8298 8.15625 80.3994 7.95117V8.79883C80.1807 8.88997 79.9551 8.96745 79.7227 9.03125C79.4948 9.09505 79.2214 9.12695 78.9023 9.12695C78.0182 9.12695 77.3392 8.85352 76.8652 8.30664C76.3913 7.75521 76.1543 6.9873 76.1543 6.00293C76.1543 5.05046 76.4049 4.29395 76.9062 3.7334C77.4121 3.17285 78.1003 2.89258 78.9707 2.89258C79.554 2.89258 80.1146 3.0293 80.6523 3.30273L80.2559 4.10938C79.7637 3.87695 79.3353 3.76074 78.9707 3.76074ZM73.5498 6.00293C73.5498 5.09147 73.7777 4.23698 74.2334 3.43945C74.6891 2.64193 75.3158 2.01302 76.1133 1.55273C76.9108 1.09245 77.7699 0.862305 78.6904 0.862305C79.6019 0.862305 80.4564 1.09017 81.2539 1.5459C82.0514 2.00163 82.6803 2.62826 83.1406 3.42578C83.6009 4.22331 83.8311 5.08236 83.8311 6.00293C83.8311 6.90072 83.61 7.74382 83.168 8.53223C82.7259 9.32064 82.1061 9.95182 81.3086 10.4258C80.5111 10.8997 79.6383 11.1367 78.6904 11.1367C77.7471 11.1367 76.8766 10.902 76.0791 10.4326C75.2816 9.95866 74.6595 9.32747 74.2129 8.53906C73.7708 7.75065 73.5498 6.90527 73.5498 6.00293ZM74.2676 6.00293C74.2676 6.79134 74.4658 7.52962 74.8623 8.21777C75.2588 8.90137 75.7988 9.44141 76.4824 9.83789C77.1706 10.2298 77.9066 10.4258 78.6904 10.4258C79.4834 10.4258 80.2194 10.2275 80.8984 9.83105C81.5775 9.43457 82.1152 8.89909 82.5117 8.22461C82.9128 7.54557 83.1133 6.80501 83.1133 6.00293C83.1133 5.20996 82.915 4.47396 82.5186 3.79492C82.1221 3.11589 81.5843 2.57812 80.9053 2.18164C80.2308 1.7806 79.4925 1.58008 78.6904 1.58008C77.8975 1.58008 77.1615 1.77832 76.4824 2.1748C75.8034 2.57129 75.2633 3.10905 74.8623 3.78809C74.4658 4.46257 74.2676 5.20085 74.2676 6.00293Z" fill="#303343"/>
<path d="M95.4043 11H88.835V10.0225L91.4668 7.37695C92.2689 6.56576 92.7975 5.98698 93.0527 5.64062C93.3079 5.29427 93.4993 4.95703 93.627 4.62891C93.7546 4.30078 93.8184 3.94759 93.8184 3.56934C93.8184 3.03613 93.6566 2.61458 93.333 2.30469C93.0094 1.99023 92.5605 1.83301 91.9863 1.83301C91.5716 1.83301 91.1774 1.90137 90.8037 2.03809C90.4346 2.1748 90.0221 2.42318 89.5664 2.7832L88.9648 2.01074C89.8854 1.24512 90.888 0.862305 91.9727 0.862305C92.9115 0.862305 93.6475 1.10384 94.1807 1.58691C94.7139 2.06543 94.9805 2.71029 94.9805 3.52148C94.9805 4.15495 94.8027 4.78158 94.4473 5.40137C94.0918 6.02116 93.4264 6.80501 92.4512 7.75293L90.2637 9.89258V9.94727H95.4043V11Z" fill="#303343"/>
<path d="M103.471 5.98926C103.471 7.71647 103.197 9.00618 102.65 9.8584C102.108 10.7106 101.276 11.1367 100.155 11.1367C99.0798 11.1367 98.2617 10.7015 97.7012 9.83105C97.1406 8.95605 96.8604 7.67546 96.8604 5.98926C96.8604 4.24837 97.1315 2.95638 97.6738 2.11328C98.2161 1.27018 99.0433 0.848633 100.155 0.848633C101.24 0.848633 102.062 1.28841 102.623 2.16797C103.188 3.04753 103.471 4.32129 103.471 5.98926ZM98.0088 5.98926C98.0088 7.44303 98.1797 8.5026 98.5215 9.16797C98.8633 9.82878 99.4079 10.1592 100.155 10.1592C100.912 10.1592 101.459 9.82422 101.796 9.1543C102.138 8.47982 102.309 7.4248 102.309 5.98926C102.309 4.55371 102.138 3.50326 101.796 2.83789C101.459 2.16797 100.912 1.83301 100.155 1.83301C99.4079 1.83301 98.8633 2.16341 98.5215 2.82422C98.1797 3.48047 98.0088 4.53548 98.0088 5.98926Z" fill="#303343"/>
<path d="M111.428 11H104.858V10.0225L107.49 7.37695C108.292 6.56576 108.821 5.98698 109.076 5.64062C109.331 5.29427 109.523 4.95703 109.65 4.62891C109.778 4.30078 109.842 3.94759 109.842 3.56934C109.842 3.03613 109.68 2.61458 109.356 2.30469C109.033 1.99023 108.584 1.83301 108.01 1.83301C107.595 1.83301 107.201 1.90137 106.827 2.03809C106.458 2.1748 106.046 2.42318 105.59 2.7832L104.988 2.01074C105.909 1.24512 106.911 0.862305 107.996 0.862305C108.935 0.862305 109.671 1.10384 110.204 1.58691C110.737 2.06543 111.004 2.71029 111.004 3.52148C111.004 4.15495 110.826 4.78158 110.471 5.40137C110.115 6.02116 109.45 6.80501 108.475 7.75293L106.287 9.89258V9.94727H111.428V11Z" fill="#303343"/>
<path d="M119.494 5.98926C119.494 7.71647 119.221 9.00618 118.674 9.8584C118.132 10.7106 117.3 11.1367 116.179 11.1367C115.103 11.1367 114.285 10.7015 113.725 9.83105C113.164 8.95605 112.884 7.67546 112.884 5.98926C112.884 4.24837 113.155 2.95638 113.697 2.11328C114.24 1.27018 115.067 0.848633 116.179 0.848633C117.263 0.848633 118.086 1.28841 118.646 2.16797C119.212 3.04753 119.494 4.32129 119.494 5.98926ZM114.032 5.98926C114.032 7.44303 114.203 8.5026 114.545 9.16797C114.887 9.82878 115.431 10.1592 116.179 10.1592C116.935 10.1592 117.482 9.82422 117.819 9.1543C118.161 8.47982 118.332 7.4248 118.332 5.98926C118.332 4.55371 118.161 3.50326 117.819 2.83789C117.482 2.16797 116.935 1.83301 116.179 1.83301C115.431 1.83301 114.887 2.16341 114.545 2.82422C114.203 3.48047 114.032 4.53548 114.032 5.98926Z" fill="#303343"/>
<path d="M130.849 0.363281H131.812V14.3906H130.849V0.363281Z" fill="#303343"/>
<path d="M143.509 3.38477C144.493 3.38477 145.257 3.72201 145.799 4.39648C146.346 5.06641 146.619 6.0166 146.619 7.24707C146.619 8.47754 146.343 9.43457 145.792 10.1182C145.245 10.7972 144.484 11.1367 143.509 11.1367C143.021 11.1367 142.575 11.0479 142.169 10.8701C141.768 10.6878 141.431 10.4098 141.157 10.0361H141.075L140.836 11H140.022V0.363281H141.157V2.94727C141.157 3.52604 141.139 4.04557 141.103 4.50586H141.157C141.686 3.75846 142.47 3.38477 143.509 3.38477ZM143.345 4.33496C142.57 4.33496 142.012 4.55827 141.67 5.00488C141.328 5.44694 141.157 6.19434 141.157 7.24707C141.157 8.2998 141.333 9.05404 141.684 9.50977C142.035 9.96094 142.597 10.1865 143.372 10.1865C144.069 10.1865 144.589 9.93359 144.931 9.42773C145.272 8.91732 145.443 8.18587 145.443 7.2334C145.443 6.25814 145.272 5.53125 144.931 5.05273C144.589 4.57422 144.06 4.33496 143.345 4.33496Z" fill="#303343"/>
<path d="M151.773 11.1367C150.666 11.1367 149.791 10.7995 149.148 10.125C148.51 9.45052 148.191 8.514 148.191 7.31543C148.191 6.10775 148.488 5.14844 149.08 4.4375C149.677 3.72656 150.477 3.37109 151.479 3.37109C152.418 3.37109 153.161 3.68099 153.708 4.30078C154.255 4.91602 154.528 5.72949 154.528 6.74121V7.45898H149.367C149.39 8.33854 149.611 9.00618 150.03 9.46191C150.454 9.91764 151.049 10.1455 151.814 10.1455C152.621 10.1455 153.419 9.97689 154.207 9.63965V10.6514C153.806 10.8245 153.425 10.9476 153.065 11.0205C152.71 11.098 152.279 11.1367 151.773 11.1367ZM151.466 4.32129C150.864 4.32129 150.383 4.51725 150.023 4.90918C149.668 5.30111 149.458 5.84342 149.395 6.53613H153.312C153.312 5.82064 153.152 5.27376 152.833 4.89551C152.514 4.5127 152.058 4.32129 151.466 4.32129Z" fill="#303343"/>
<path d="M158.89 10.2002C159.09 10.2002 159.284 10.1865 159.471 10.1592C159.658 10.1273 159.806 10.0954 159.915 10.0635V10.9316C159.792 10.9909 159.61 11.0387 159.368 11.0752C159.131 11.1162 158.917 11.1367 158.726 11.1367C157.276 11.1367 156.552 10.3734 156.552 8.84668V4.38965H155.479V3.84277L156.552 3.37109L157.03 1.77148H157.687V3.50781H159.86V4.38965H157.687V8.79883C157.687 9.25 157.794 9.59635 158.008 9.83789C158.222 10.0794 158.516 10.2002 158.89 10.2002Z" fill="#303343"/>
<path d="M166.026 11L165.801 9.93359H165.746C165.372 10.403 164.999 10.722 164.625 10.8906C164.256 11.0547 163.793 11.1367 163.237 11.1367C162.494 11.1367 161.911 10.9453 161.487 10.5625C161.068 10.1797 160.858 9.63509 160.858 8.92871C160.858 7.41569 162.068 6.62272 164.488 6.5498L165.76 6.50879V6.04395C165.76 5.45605 165.632 5.02311 165.377 4.74512C165.126 4.46257 164.723 4.32129 164.167 4.32129C163.543 4.32129 162.836 4.5127 162.048 4.89551L161.699 4.02734C162.068 3.82682 162.472 3.6696 162.909 3.55566C163.351 3.44173 163.793 3.38477 164.235 3.38477C165.129 3.38477 165.789 3.58301 166.218 3.97949C166.651 4.37598 166.867 5.01172 166.867 5.88672V11H166.026ZM163.463 10.2002C164.169 10.2002 164.723 10.0065 165.124 9.61914C165.53 9.23177 165.732 8.68945 165.732 7.99219V7.31543L164.598 7.36328C163.695 7.39518 163.044 7.53646 162.643 7.78711C162.246 8.0332 162.048 8.41829 162.048 8.94238C162.048 9.35254 162.171 9.66471 162.417 9.87891C162.668 10.0931 163.016 10.2002 163.463 10.2002Z" fill="#303343"/>
<path d="M174.489 11L171.646 3.50781H172.862L174.476 7.95117C174.84 8.99023 175.054 9.66471 175.118 9.97461H175.173C175.223 9.73307 175.38 9.23405 175.645 8.47754C175.913 7.71647 176.513 6.0599 177.442 3.50781H178.659L175.815 11H174.489Z" fill="#303343"/>
<path d="M183.027 11.1367C181.92 11.1367 181.045 10.7995 180.402 10.125C179.764 9.45052 179.445 8.514 179.445 7.31543C179.445 6.10775 179.742 5.14844 180.334 4.4375C180.931 3.72656 181.731 3.37109 182.733 3.37109C183.672 3.37109 184.415 3.68099 184.962 4.30078C185.509 4.91602 185.782 5.72949 185.782 6.74121V7.45898H180.621C180.644 8.33854 180.865 9.00618 181.284 9.46191C181.708 9.91764 182.303 10.1455 183.068 10.1455C183.875 10.1455 184.673 9.97689 185.461 9.63965V10.6514C185.06 10.8245 184.679 10.9476 184.319 11.0205C183.964 11.098 183.533 11.1367 183.027 11.1367ZM182.72 4.32129C182.118 4.32129 181.637 4.51725 181.277 4.90918C180.922 5.30111 180.712 5.84342 180.648 6.53613H184.565C184.565 5.82064 184.406 5.27376 184.087 4.89551C183.768 4.5127 183.312 4.32129 182.72 4.32129Z" fill="#303343"/>
<path d="M191.142 3.37109C191.474 3.37109 191.773 3.39844 192.037 3.45312L191.88 4.50586C191.57 4.4375 191.297 4.40332 191.06 4.40332C190.453 4.40332 189.934 4.64941 189.501 5.1416C189.073 5.63379 188.858 6.24674 188.858 6.98047V11H187.724V3.50781H188.66L188.79 4.89551H188.845C189.123 4.40788 189.458 4.0319 189.85 3.76758C190.242 3.50326 190.672 3.37109 191.142 3.37109Z" fill="#303343"/>
<path d="M193.274 10.2754C193.274 9.97005 193.343 9.73991 193.479 9.58496C193.621 9.42546 193.821 9.3457 194.081 9.3457C194.345 9.3457 194.55 9.42546 194.696 9.58496C194.847 9.73991 194.922 9.97005 194.922 10.2754C194.922 10.5716 194.847 10.7995 194.696 10.959C194.546 11.1185 194.341 11.1982 194.081 11.1982C193.849 11.1982 193.655 11.1276 193.5 10.9863C193.35 10.8405 193.274 10.6035 193.274 10.2754Z" fill="#303343"/>
<path d="M200.855 11H199.748V3.87695C199.748 3.28451 199.766 2.72396 199.803 2.19531C199.707 2.29102 199.6 2.39128 199.481 2.49609C199.363 2.60091 198.821 3.04525 197.854 3.8291L197.253 3.0498L199.898 1.00586H200.855V11Z" fill="#303343"/>
<path d="M205.019 10.2754C205.019 9.97005 205.087 9.73991 205.224 9.58496C205.365 9.42546 205.565 9.3457 205.825 9.3457C206.09 9.3457 206.295 9.42546 206.44 9.58496C206.591 9.73991 206.666 9.97005 206.666 10.2754C206.666 10.5716 206.591 10.7995 206.44 10.959C206.29 11.1185 206.085 11.1982 205.825 11.1982C205.593 11.1982 205.399 11.1276 205.244 10.9863C205.094 10.8405 205.019 10.6035 205.019 10.2754Z" fill="#303343"/>
<path d="M215.02 5.98926C215.02 7.71647 214.746 9.00618 214.199 9.8584C213.657 10.7106 212.825 11.1367 211.704 11.1367C210.629 11.1367 209.811 10.7015 209.25 9.83105C208.689 8.95605 208.409 7.67546 208.409 5.98926C208.409 4.24837 208.68 2.95638 209.223 2.11328C209.765 1.27018 210.592 0.848633 211.704 0.848633C212.789 0.848633 213.611 1.28841 214.172 2.16797C214.737 3.04753 215.02 4.32129 215.02 5.98926ZM209.558 5.98926C209.558 7.44303 209.729 8.5026 210.07 9.16797C210.412 9.82878 210.957 10.1592 211.704 10.1592C212.461 10.1592 213.007 9.82422 213.345 9.1543C213.687 8.47982 213.857 7.4248 213.857 5.98926C213.857 4.55371 213.687 3.50326 213.345 2.83789C213.007 2.16797 212.461 1.83301 211.704 1.83301C210.957 1.83301 210.412 2.16341 210.07 2.82422C209.729 3.48047 209.558 4.53548 209.558 5.98926Z" fill="#303343"/>
<path d="M3.9834 39.1367C3.02637 39.1367 2.28353 38.7926 1.75488 38.1045H1.65918C1.72298 38.7425 1.75488 39.1299 1.75488 39.2666V42.3633H0.148438V31.4395H1.44727C1.48372 31.5807 1.55892 31.918 1.67285 32.4512H1.75488C2.25618 31.6855 3.00814 31.3027 4.01074 31.3027C4.9541 31.3027 5.68783 31.6445 6.21191 32.3281C6.74056 33.0117 7.00488 33.971 7.00488 35.2061C7.00488 36.4411 6.736 37.4049 6.19824 38.0977C5.66504 38.7904 4.92676 39.1367 3.9834 39.1367ZM3.59375 32.6152C2.95573 32.6152 2.48861 32.8021 2.19238 33.1758C1.90072 33.5495 1.75488 34.1465 1.75488 34.9668V35.2061C1.75488 36.1266 1.90072 36.7943 2.19238 37.209C2.48405 37.6191 2.96029 37.8242 3.62109 37.8242C4.17708 37.8242 4.60547 37.5964 4.90625 37.1406C5.20703 36.6849 5.35742 36.0355 5.35742 35.1924C5.35742 34.3447 5.20703 33.7044 4.90625 33.2715C4.61003 32.834 4.17253 32.6152 3.59375 32.6152Z" fill="#303343"/>
<path d="M15.5771 35.2061C15.5771 36.4411 15.2604 37.4049 14.627 38.0977C13.9935 38.7904 13.1117 39.1367 11.9814 39.1367C11.2751 39.1367 10.6507 38.9772 10.1084 38.6582C9.56608 38.3392 9.14909 37.8812 8.85742 37.2842C8.56576 36.6872 8.41992 35.9945 8.41992 35.2061C8.41992 33.9801 8.73438 33.0231 9.36328 32.335C9.99219 31.6468 10.8786 31.3027 12.0225 31.3027C13.1162 31.3027 13.9821 31.6559 14.6201 32.3623C15.2581 33.0641 15.5771 34.012 15.5771 35.2061ZM10.0742 35.2061C10.0742 36.9515 10.7191 37.8242 12.0088 37.8242C13.2848 37.8242 13.9229 36.9515 13.9229 35.2061C13.9229 33.4788 13.2803 32.6152 11.9951 32.6152C11.3206 32.6152 10.8307 32.8385 10.5254 33.2852C10.2246 33.7318 10.0742 34.3721 10.0742 35.2061Z" fill="#303343"/>
<path d="M23.6299 39L22.6523 35.4727C22.5339 35.099 22.3197 34.2308 22.0098 32.8682H21.9482C21.6839 34.0986 21.4743 34.9714 21.3193 35.4863L20.3145 39H18.5371L16.418 31.4395H18.0586L19.0225 35.165C19.2412 36.0856 19.3962 36.874 19.4873 37.5303H19.5283C19.5739 37.1976 19.6423 36.8171 19.7334 36.3887C19.8291 35.9557 19.9111 35.6322 19.9795 35.418L21.1279 31.4395H22.8916L24.0059 35.418C24.0742 35.6413 24.1585 35.9831 24.2588 36.4434C24.3636 36.9036 24.4251 37.2614 24.4434 37.5166H24.498C24.5664 36.9561 24.7259 36.1722 24.9766 35.165L25.9541 31.4395H27.5674L25.4346 39H23.6299Z" fill="#303343"/>
<path d="M32.1748 39.1367C30.999 39.1367 30.0785 38.7949 29.4131 38.1113C28.7523 37.4232 28.4219 36.4775 28.4219 35.2744C28.4219 34.0394 28.7295 33.0687 29.3447 32.3623C29.96 31.6559 30.8053 31.3027 31.8809 31.3027C32.8789 31.3027 33.6673 31.6058 34.2461 32.2119C34.8249 32.818 35.1143 33.652 35.1143 34.7139V35.582H30.0762C30.099 36.3158 30.2972 36.8809 30.6709 37.2773C31.0446 37.6693 31.571 37.8652 32.25 37.8652C32.6966 37.8652 33.1113 37.8242 33.4941 37.7422C33.8815 37.6556 34.2962 37.5143 34.7383 37.3184V38.624C34.3464 38.8109 33.9499 38.943 33.5488 39.0205C33.1478 39.098 32.6898 39.1367 32.1748 39.1367ZM31.8809 32.5195C31.3704 32.5195 30.9603 32.6813 30.6504 33.0049C30.3451 33.3285 30.1628 33.8001 30.1035 34.4199H33.5352C33.526 33.7956 33.3757 33.3239 33.084 33.0049C32.7923 32.6813 32.3913 32.5195 31.8809 32.5195Z" fill="#303343"/>
<path d="M40.7744 31.3027C41.098 31.3027 41.3646 31.3255 41.5742 31.3711L41.417 32.8682C41.1891 32.8135 40.9521 32.7861 40.7061 32.7861C40.0635 32.7861 39.5417 32.9958 39.1406 33.415C38.7441 33.8343 38.5459 34.3789 38.5459 35.0488V39H36.9395V31.4395H38.1973L38.4092 32.7725H38.4912C38.7419 32.3213 39.0677 31.9635 39.4688 31.6992C39.8743 31.4349 40.3096 31.3027 40.7744 31.3027Z" fill="#303343"/>
<path d="M46.2842 39.1367C45.1084 39.1367 44.1878 38.7949 43.5225 38.1113C42.8617 37.4232 42.5312 36.4775 42.5312 35.2744C42.5312 34.0394 42.8389 33.0687 43.4541 32.3623C44.0693 31.6559 44.9147 31.3027 45.9902 31.3027C46.9883 31.3027 47.7767 31.6058 48.3555 32.2119C48.9342 32.818 49.2236 33.652 49.2236 34.7139V35.582H44.1855C44.2083 36.3158 44.4066 36.8809 44.7803 37.2773C45.154 37.6693 45.6803 37.8652 46.3594 37.8652C46.806 37.8652 47.2207 37.8242 47.6035 37.7422C47.9909 37.6556 48.4056 37.5143 48.8477 37.3184V38.624C48.4557 38.8109 48.0592 38.943 47.6582 39.0205C47.2572 39.098 46.7992 39.1367 46.2842 39.1367ZM45.9902 32.5195C45.4798 32.5195 45.0697 32.6813 44.7598 33.0049C44.4544 33.3285 44.2721 33.8001 44.2129 34.4199H47.6445C47.6354 33.7956 47.485 33.3239 47.1934 33.0049C46.9017 32.6813 46.5007 32.5195 45.9902 32.5195Z" fill="#303343"/>
<path d="M53.5986 39.1367C52.6553 39.1367 51.9193 38.7949 51.3906 38.1113C50.862 37.4277 50.5977 36.4684 50.5977 35.2334C50.5977 33.9938 50.8643 33.0299 51.3975 32.3418C51.9352 31.6491 52.6781 31.3027 53.626 31.3027C54.6195 31.3027 55.376 31.6696 55.8955 32.4033H55.9775C55.9001 31.861 55.8613 31.4326 55.8613 31.1182V28.3633H57.4746V39H56.2168L55.9365 38.0088H55.8613C55.3464 38.7607 54.5921 39.1367 53.5986 39.1367ZM54.0293 37.8379C54.6901 37.8379 55.1709 37.6533 55.4717 37.2842C55.7725 36.9105 55.9274 36.3066 55.9365 35.4727V35.2471C55.9365 34.2946 55.7816 33.6178 55.4717 33.2168C55.1618 32.8158 54.6764 32.6152 54.0156 32.6152C53.4505 32.6152 53.0153 32.8454 52.71 33.3057C52.4046 33.7614 52.252 34.4131 52.252 35.2607C52.252 36.0993 52.4001 36.7396 52.6963 37.1816C52.9925 37.6191 53.4368 37.8379 54.0293 37.8379Z" fill="#303343"/>
<path d="M67.2705 31.3027C68.2139 31.3027 68.9476 31.6445 69.4717 32.3281C70.0003 33.0117 70.2646 33.971 70.2646 35.2061C70.2646 36.4456 69.998 37.4118 69.4648 38.1045C68.9316 38.7926 68.1911 39.1367 67.2432 39.1367C66.2861 39.1367 65.5433 38.7926 65.0146 38.1045H64.9053L64.6113 39H63.4082V28.3633H65.0146V30.8926C65.0146 31.0794 65.0055 31.3574 64.9873 31.7266C64.9691 32.0957 64.9554 32.3304 64.9463 32.4307H65.0146C65.5251 31.6787 66.277 31.3027 67.2705 31.3027ZM66.8535 32.6152C66.2064 32.6152 65.7393 32.8066 65.4521 33.1895C65.1696 33.5677 65.0238 34.2035 65.0146 35.0967V35.2061C65.0146 36.1266 65.1605 36.7943 65.4521 37.209C65.7438 37.6191 66.2201 37.8242 66.8809 37.8242C67.4505 37.8242 67.8812 37.5986 68.1729 37.1475C68.4691 36.6963 68.6172 36.0446 68.6172 35.1924C68.6172 33.4743 68.0293 32.6152 66.8535 32.6152Z" fill="#303343"/>
<path d="M70.9824 31.4395H72.7324L74.2705 35.7256C74.5029 36.3363 74.6579 36.9105 74.7354 37.4482H74.79C74.8311 37.1976 74.9062 36.8945 75.0156 36.5391C75.125 36.179 75.7038 34.4792 76.752 31.4395H78.4883L75.2549 40.0049C74.667 41.5771 73.6872 42.3633 72.3154 42.3633C71.96 42.3633 71.6136 42.3245 71.2764 42.2471V40.9756C71.5179 41.0303 71.7936 41.0576 72.1035 41.0576C72.8783 41.0576 73.4229 40.6087 73.7373 39.7109L74.0176 39L70.9824 31.4395Z" fill="#303343"/>
<g opacity="0.15" clip-path="url(#clip0)">
<path d="M131.112 40.0136C129.829 40.0253 128.547 39.9544 127.273 39.8014C127.21 39.7964 127.147 39.7788 127.091 39.7496C127.034 39.7204 126.983 39.6802 126.942 39.6313C126.901 39.5825 126.87 39.5259 126.851 39.4649C126.832 39.4039 126.825 39.3397 126.831 39.2761V24.7807C126.822 24.6524 126.863 24.5255 126.945 24.4269C127.028 24.3282 127.145 24.2655 127.273 24.2518C128.547 24.1005 129.829 24.0308 131.112 24.0431C135.016 24.0431 137.505 26.0471 137.505 30.6019V33.4513C137.505 37.9665 135.016 40.0136 131.112 40.0136ZM135.588 30.6019C135.588 26.7846 133.645 25.6873 131.112 25.6873C130.123 25.6873 129.468 25.7089 128.774 25.7521V38.3443C129.446 38.3838 130.123 38.3838 131.112 38.3838C133.63 38.3838 135.588 37.2685 135.588 33.4693V30.6019Z" fill="white"/>
<path d="M148.73 34.653H141.661V34.9084C141.661 37.3333 142.801 38.4522 144.744 38.4522C145.949 38.4375 147.151 38.339 148.342 38.1572H148.45C148.492 38.1515 148.534 38.1549 148.575 38.1672C148.615 38.1795 148.653 38.2003 148.684 38.2283C148.716 38.2563 148.741 38.2907 148.759 38.3294C148.776 38.368 148.785 38.4099 148.784 38.4522V39.1718C148.784 39.4452 148.702 39.5927 148.363 39.6575C147.17 39.9033 145.955 40.0239 144.737 40.0173C142.326 40.0137 139.808 38.8516 139.808 34.7933V33.3182C139.808 30.3213 141.477 28.1086 144.485 28.1086C147.565 28.1086 149.126 30.2997 149.126 33.2966V34.1817C149.13 34.4659 148.982 34.653 148.73 34.653ZM147.252 33.1347C147.252 30.8789 146.345 29.7384 144.489 29.7384C142.632 29.7384 141.661 30.9617 141.661 33.1347V33.2391H147.252V33.1347Z" fill="white"/>
<path d="M160.524 28.767L157.822 38.3479C157.462 39.6755 156.62 40.0137 155.775 40.0137C154.929 40.0137 154.109 39.6755 153.731 38.3479L151.029 28.767C151.013 28.7197 151.006 28.6696 151.008 28.6195C151.003 28.573 151.008 28.526 151.023 28.4816C151.039 28.4373 151.063 28.3968 151.095 28.3627C151.127 28.3286 151.166 28.3018 151.209 28.284C151.253 28.2663 151.299 28.258 151.346 28.2598H152.504C152.673 28.2598 152.843 28.3857 152.907 28.6591L155.278 37.819C155.404 38.3479 155.573 38.4738 155.782 38.4738C155.991 38.4738 156.163 38.3479 156.289 37.819L158.646 28.6771C158.711 28.4037 158.876 28.2777 159.045 28.2777H160.229C160.273 28.2741 160.317 28.2804 160.359 28.2962C160.4 28.312 160.437 28.3369 160.467 28.369C160.498 28.4011 160.521 28.4397 160.534 28.4818C160.548 28.5239 160.551 28.5685 160.545 28.6123C160.546 28.6647 160.539 28.7169 160.524 28.767Z" fill="white"/>
<path d="M171.389 34.653H164.319V34.9084C164.319 37.3333 165.46 38.4522 167.399 38.4522C168.604 38.4374 169.806 38.3388 170.997 38.1572H171.105C171.147 38.1521 171.189 38.156 171.229 38.1685C171.27 38.1809 171.307 38.2018 171.338 38.2297C171.37 38.2575 171.395 38.2918 171.413 38.3301C171.43 38.3685 171.439 38.4101 171.439 38.4522V39.1718C171.439 39.4452 171.357 39.5927 171.019 39.6575C169.824 39.9035 168.608 40.024 167.388 40.0173C164.992 40.0137 162.474 38.8516 162.474 34.7933V33.3182C162.474 30.3213 164.143 28.1086 167.151 28.1086C170.231 28.1086 171.792 30.2997 171.792 33.2966V34.1817C171.788 34.4659 171.641 34.653 171.389 34.653ZM169.91 33.1347C169.91 30.8789 169.004 29.7384 167.147 29.7384C165.291 29.7384 164.319 30.9617 164.319 33.1347V33.2391H169.91V33.1347Z" fill="white"/>
<path d="M175.965 39.8662H174.868C174.765 39.8552 174.67 39.805 174.603 39.726C174.536 39.6469 174.502 39.5451 174.508 39.4416V24.3994C174.503 24.2988 174.539 24.2003 174.606 24.1255C174.673 24.0507 174.768 24.0056 174.868 24H175.965C176.017 24.0004 176.068 24.0112 176.115 24.0317C176.162 24.0521 176.205 24.0818 176.241 24.1191C176.276 24.1563 176.304 24.2003 176.322 24.2484C176.34 24.2966 176.349 24.3479 176.347 24.3994V39.4416C176.35 39.4946 176.342 39.5475 176.325 39.5976C176.307 39.6476 176.28 39.6936 176.244 39.733C176.209 39.7725 176.166 39.8045 176.118 39.8274C176.07 39.8502 176.018 39.8634 175.965 39.8662Z" fill="white"/>
<path d="M183.729 40.0138C180.628 40.0138 179.052 37.9667 179.052 34.8654V33.2608C179.052 30.1595 180.635 28.116 183.729 28.116C186.824 28.116 188.435 30.1595 188.435 33.2608V34.8654C188.435 37.9667 186.831 40.0138 183.729 40.0138ZM186.579 33.2608C186.579 31.1021 185.712 29.7386 183.729 29.7386C181.747 29.7386 180.902 31.0877 180.902 33.2608V34.8654C180.902 37.024 181.747 38.3876 183.729 38.3876C185.712 38.3876 186.579 37.0384 186.579 34.8654V33.2608Z" fill="white"/>
<path d="M195.25 40.0138C194.422 40.0015 193.597 39.9233 192.781 39.7799V43.6008C192.78 43.707 192.738 43.8086 192.662 43.8834C192.587 43.9582 192.485 44.0001 192.378 44.0001H191.299C191.248 43.9997 191.197 43.9889 191.15 43.9684C191.103 43.9479 191.061 43.9181 191.025 43.8808C190.99 43.8435 190.963 43.7995 190.945 43.7514C190.927 43.7033 190.919 43.652 190.921 43.6008V29.0838C190.921 28.8103 190.983 28.6844 191.364 28.5981C192.636 28.2928 193.938 28.1311 195.246 28.116C198.387 28.116 199.844 30.1595 199.844 33.3255V34.8438C199.847 38.1573 198.329 40.0138 195.25 40.0138ZM197.991 33.3255C197.991 31.1093 197.336 29.6738 195.25 29.6738C194.423 29.6794 193.597 29.7504 192.781 29.8861V38.2401C193.598 38.3725 194.423 38.4434 195.25 38.4524C197.315 38.4524 197.991 37.1032 197.991 34.8546V33.3255Z" fill="white"/>
<path d="M215.922 39.8663H214.825C214.772 39.865 214.719 39.8528 214.671 39.8304C214.622 39.8081 214.579 39.7759 214.544 39.7361C214.508 39.6963 214.482 39.6496 214.465 39.599C214.448 39.5483 214.442 39.4948 214.447 39.4417V31.8073C214.447 29.9904 213.666 29.7386 212.548 29.7386H212.062C210.713 29.7386 210.263 29.9724 210.263 31.1777V39.4525C210.267 39.5058 210.261 39.5594 210.244 39.6101C210.227 39.6607 210.2 39.7073 210.164 39.7471C210.128 39.7869 210.085 39.8189 210.036 39.8412C209.988 39.8636 209.935 39.8758 209.882 39.8771H208.784C208.731 39.8758 208.679 39.8636 208.63 39.8412C208.582 39.8188 208.539 39.7867 208.503 39.7469C208.468 39.7071 208.441 39.6604 208.424 39.6098C208.408 39.5591 208.402 39.5056 208.407 39.4525V31.1777C208.407 29.976 207.942 29.7386 206.608 29.7386H206.122C205.025 29.7386 204.222 29.9904 204.222 31.8073V39.4417C204.227 39.495 204.22 39.5486 204.203 39.5993C204.186 39.6499 204.159 39.6965 204.123 39.7363C204.088 39.7761 204.044 39.8081 203.996 39.8305C203.947 39.8528 203.894 39.865 203.841 39.8663H202.762C202.708 39.865 202.656 39.8528 202.607 39.8305C202.559 39.8081 202.515 39.7761 202.479 39.7363C202.444 39.6965 202.416 39.6499 202.399 39.5993C202.382 39.5486 202.376 39.495 202.38 39.4417V31.8073C202.38 29.6486 203.604 28.116 206.136 28.116H206.622C207.885 28.116 208.709 28.2815 209.364 28.8751C209.997 28.3246 210.839 28.116 212.105 28.116H212.591C215.109 28.116 216.347 29.6342 216.347 31.8073V39.4417C216.352 39.4987 216.344 39.5561 216.325 39.6099C216.305 39.6636 216.274 39.7124 216.233 39.7529C216.193 39.7933 216.144 39.8244 216.09 39.844C216.037 39.8636 215.979 39.8712 215.922 39.8663Z" fill="white"/>
<path d="M227.759 34.6529H220.693V34.9084C220.693 37.3333 221.83 38.4522 223.773 38.4522C224.977 38.4375 226.179 38.3389 227.37 38.1572H227.478C227.52 38.1515 227.563 38.1549 227.604 38.1672C227.645 38.1794 227.682 38.2002 227.714 38.2281C227.746 38.256 227.772 38.2905 227.79 38.3291C227.807 38.3677 227.816 38.4097 227.817 38.4522V39.1717C227.817 39.4452 227.73 39.5927 227.392 39.6574C226.199 39.9034 224.984 40.024 223.765 40.0172C221.337 40.0172 218.829 38.8551 218.829 34.804V33.329C218.829 30.332 220.495 28.1194 223.506 28.1194C226.59 28.1194 228.148 30.3104 228.148 33.3074V34.1924C228.158 34.4659 228.011 34.6529 227.759 34.6529ZM226.284 33.1347C226.284 30.8789 225.374 29.7384 223.517 29.7384C221.661 29.7384 220.693 30.9616 220.693 33.1347V33.239H226.284V33.1347Z" fill="white"/>
<path d="M239.15 39.8661H238.07C238.015 39.8678 237.96 39.8578 237.909 39.8368C237.858 39.8158 237.812 39.7842 237.774 39.7441C237.736 39.704 237.706 39.6563 237.688 39.6042C237.67 39.5521 237.663 39.4966 237.667 39.4416V31.915C237.667 30.332 237.268 29.7204 235.832 29.7204H234.332C232.893 29.7204 232.497 30.332 232.497 31.915V39.4416C232.502 39.4932 232.497 39.5453 232.481 39.5948C232.466 39.6443 232.44 39.6901 232.407 39.7297C232.373 39.7693 232.332 39.8017 232.286 39.8251C232.24 39.8486 232.189 39.8625 232.137 39.8661H231.04C230.987 39.8648 230.934 39.8526 230.886 39.8303C230.837 39.8079 230.794 39.7759 230.758 39.7361C230.722 39.6964 230.695 39.6497 230.678 39.5991C230.661 39.5484 230.654 39.4948 230.659 39.4416V31.915C230.659 28.677 232.918 28.1194 234.35 28.1194H235.85C237.289 28.1194 239.542 28.6662 239.542 31.915V39.4416C239.546 39.4957 239.539 39.5502 239.522 39.6016C239.504 39.653 239.476 39.7001 239.439 39.74C239.402 39.78 239.357 39.8118 239.307 39.8335C239.258 39.8552 239.204 39.8663 239.15 39.8661Z" fill="white"/>
<path d="M247.547 39.8878C246.875 39.9722 246.198 40.0142 245.521 40.0137C243.539 40.0137 242.402 39.3589 242.402 37.0815V26.1947C242.402 25.9824 242.589 25.8349 242.823 25.7917L243.855 25.6262H243.899C243.949 25.6259 244 25.6364 244.046 25.6569C244.092 25.6774 244.134 25.7075 244.168 25.7452C244.202 25.7829 244.228 25.8274 244.243 25.8757C244.259 25.924 244.264 25.9751 244.258 26.0256V28.2634H247.547C247.599 28.257 247.652 28.2621 247.702 28.2785C247.752 28.2948 247.798 28.322 247.836 28.358C247.875 28.3941 247.905 28.4381 247.925 28.487C247.944 28.5359 247.953 28.5886 247.95 28.6412V29.3607C247.951 29.4137 247.942 29.4665 247.922 29.5157C247.902 29.5649 247.872 29.6094 247.835 29.6466C247.797 29.6837 247.752 29.7127 247.702 29.7316C247.653 29.7505 247.6 29.759 247.547 29.7565H244.258V37.0815C244.258 38.3048 244.658 38.5206 245.82 38.5206H247.529C247.824 38.5206 247.971 38.607 247.971 38.8192V39.5388C247.971 39.7187 247.863 39.8302 247.547 39.8878Z" fill="white"/>
<path d="M99.351 39.8303C98.4012 39.9778 95.7532 40.1685 94.8358 40.1685C90.7631 40.19 88 39.1647 88 34.0379V24.7196C87.9995 24.6647 88.0101 24.6102 88.0312 24.5595C88.0523 24.5088 88.0835 24.4629 88.1228 24.4246C88.1622 24.3863 88.2089 24.3563 88.2601 24.3365C88.3113 24.3167 88.3661 24.3075 88.421 24.3095H91.8604C91.9154 24.307 91.9704 24.3159 92.0219 24.3355C92.0733 24.3551 92.1202 24.385 92.1597 24.4234C92.1991 24.4619 92.2303 24.508 92.2512 24.5589C92.2721 24.6099 92.2824 24.6646 92.2814 24.7196V34.0379C92.2814 35.9339 92.9146 36.5563 94.4148 36.5563C95.0919 36.5554 95.7684 36.5133 96.4404 36.4304V24.7196C96.4393 24.6646 96.4496 24.6099 96.4705 24.5589C96.4915 24.508 96.5226 24.4619 96.5621 24.4234C96.6015 24.385 96.6484 24.3551 96.6999 24.3355C96.7514 24.3159 96.8063 24.307 96.8613 24.3095H100.279C100.335 24.3071 100.391 24.3158 100.444 24.3352C100.497 24.3545 100.545 24.3841 100.586 24.4223C100.627 24.4604 100.66 24.5063 100.684 24.5574C100.707 24.6084 100.72 24.6636 100.722 24.7196V38.2149C100.722 39.3949 100.362 39.69 99.351 39.8303Z" fill="white"/>
<path d="M107.345 39.985H103.884C103.774 39.9831 103.669 39.9379 103.591 39.8592C103.514 39.7804 103.47 39.6744 103.47 39.564V24.7196C103.47 24.6653 103.48 24.6115 103.501 24.5613C103.522 24.511 103.552 24.4655 103.591 24.4272C103.629 24.389 103.675 24.3589 103.726 24.3387C103.776 24.3184 103.83 24.3085 103.884 24.3095H107.345C107.4 24.307 107.455 24.3159 107.507 24.3355C107.558 24.3551 107.605 24.385 107.644 24.4234C107.684 24.4619 107.715 24.508 107.736 24.5589C107.757 24.6099 107.767 24.6646 107.766 24.7196V39.564C107.766 39.6757 107.722 39.7827 107.643 39.8617C107.564 39.9406 107.457 39.985 107.345 39.985Z" fill="white"/>
<path d="M119.581 39.7979C118.622 40.0746 117.626 40.2068 116.627 40.19C112.745 40.19 110.13 38.0673 110.13 33.2355V31.0769C110.13 26.2307 112.745 24.1224 116.627 24.1224C117.625 24.0933 118.62 24.2146 119.581 24.4822C119.919 24.5901 120.045 24.6513 120.045 24.9463V27.6482C120.045 27.9216 119.919 28.0476 119.686 28.0476H119.621C118.64 27.9316 117.654 27.8679 116.667 27.8569C115.527 27.8569 114.508 28.3642 114.508 31.0445V33.2032C114.508 35.8619 115.519 36.3872 116.667 36.3872C117.648 36.3872 118.628 36.3356 119.603 36.2325H119.66C119.912 36.2325 120.02 36.3584 120.02 36.6318V39.3338C120.045 39.6072 119.919 39.6899 119.581 39.7979Z" fill="white"/>
</g>
<defs>
<clipPath id="clip0">
<rect width="159.971" height="20" fill="white" transform="translate(88 24)"/>
</clipPath>
</defs>
</svg>
